{"title":"Revolt.2017.720p.WEB-DL.XviD.AC3-FGT","magnet":"magnet:?xt=urn:btih:f602a4c301f5e136f20934184ec2b52a09dd4d5d&dn=Revolt.2017.720p.WEB-DL.XviD.AC3-FGT&tr=udp%3A%2F%2Ftracker.leechers-paradise.org%3A6969&tr=udp%3A%2F%2Fzer0day.ch%3A1337&tr=udp%3A%2F%2Fopen.demonii.com%3A1337&tr=udp%3A%2F%2Ftracker.coppersurfer.tk%3A6969&tr=udp%3A%2F%2Fexodus.desync.com%3A6969","uploader":"NextBit","categoryP":"video","categoryS":"hd___movies","size":"2728753557","seeders":"0","leechers":"3","description":" <a href=\"https://lookimg.com/image/297rD\" rel=\"nofollow\" target=\"_NEW\">https://lookimg.com/image/297rD</a> <a href=\"\nhttps://lookimg.com/image/29xug\" rel=\"nofollow\" target=\"_NEW\">\nhttps://lookimg.com/image/29xug</a> <a href=\"\nhttps://lookimg.com/image/29zw5\" rel=\"nofollow\" target=\"_NEW\">\nhttps://lookimg.com/image/29zw5</a> <a href=\"\nhttps://lookimg.com/image/2925m\" rel=\"nofollow\" target=\"_NEW\">\nhttps://lookimg.com/image/2925m</a>\r\n  <a href=\"\nhttp://imdb.com/title/tt3722614/\" rel=\"nofollow\" target=\"_NEW\">\nhttp://imdb.com/title/tt3722614/</a>\r\n\r\nVideo\r\nID                                       : 0\r\nFormat                                   : MPEG-4 Visual\r\nFormat profile                           : <a class=\"__cf_email__\" href=\"/cdn-cgi/l/email-protection\" data-cfemail=\"8ad9e3e7fae6efcac6bf\">[email&#xA0;protected]</a><script data-cfhash=\"f9e31\" type=\"text/javascript\">/* <![CDATA[ */!function(t,e,r,n,c,a,p){try{t=document.currentScript||function(){for(t=document.getElementsByTagName('script'),e=t.length;e--;)if(t[e].getAttribute('data-cfhash'))return t[e]}();if(t&&(c=t.previousSibling)){p=t.parentNode;if(a=c.getAttribute('data-cfemail')){for(e='',r='0x'+a.substr(0,2)|0,n=2;a.length-n;n+=2)e+='%'+('0'+('0x'+a.substr(n,2)^r).toString(16)).slice(-2);p.replaceChild(document.createTextNode(decodeURIComponent(e)),c)}p.removeChild(t)}}catch(u){}}()/* ]]> */</script>\r\nFormat settings, BVOP                    : No\r\nFormat settings, QPel                    : No\r\nFormat settings, GMC                     : No warppoints\r\nFormat settings, Matrix                  : Default (H.263)\r\nCodec ID                                 : XVID\r\nCodec ID/Hint                            : XviD\r\nDuration                                 : 1 h 27 min\r\nBit rate                                 : 3 774 kb/s\r\nWidth                                    : 1 280 pixels\r\nHeight                                   : 536 pixels\r\nDisplay aspect ratio                     : 2.40:1\r\nFrame rate                               : 23.976 (24000/1001) FPS\r\nColor space                              : YUV\r\nChroma subsampling                       : 4:2:0\r\nBit depth                                : 8 bits\r\nScan type                                : Progressive\r\nCompression mode                         : Lossy\r\nBits/(Pixel*Frame)                       : 0.229\r\nStream size                              : 2.30 GiB (91%)\r\nWriting library                          : Lavc57.24.102\r\n\r\nAudio\r\nID                                       : 1\r\nFormat                                   : AC-3\r\nFormat/Info                              : Audio Coding 3\r\nFormat settings, Endianness              : Big\r\nCodec ID                                 : 2000\r\nDuration                                 : 1 h 27 min\r\nBit rate mode                            : Constant\r\nBit rate                                 : 384 kb/s\r\nChannel(s)                               : 6 channels\r\nChannel positions                        : Front: L C R, Side: L R, LFE\r\nSampling rate                            : 48.0 kHz\r\nFrame rate                               : 31.250 FPS (1536 spf)\r\nBit depth                                : 16 bits\r\nCompression mode                         : Lossy\r\nStream size                              : 240 MiB (9%)\r\nAlignment                                : Aligned on interleaves\r\nInterleave, duration                     : 42  ms (1.00 video frame)\r\nInterleave, preload duration             : 512  ms\r\nService kind                             : Complete Main","last_updated":"2017-07-05T12:01:35.656Z","parsed":{"xt":"urn:btih:f602a4c301f5e136f20934184ec2b52a09dd4d5d","dn":"Revolt.2017.720p.WEB-DL.XviD.AC3-FGT","tr":["udp://exodus.desync.com:6969","udp://open.demonii.com:1337","udp://tracker.coppersurfer.tk:6969","udp://tracker.leechers-paradise.org:6969","udp://zer0day.ch:1337"],"infoHash":"f602a4c301f5e136f20934184ec2b52a09dd4d5d","infoHashBuffer":{"type":"Buffer","data":[246,2,164,195,1,245,225,54,242,9,52,24,78,194,181,42,9,221,77,93]},"name":"Revolt.2017.720p.WEB-DL.XviD.AC3-FGT","announce":["udp://exodus.desync.com:6969","udp://open.demonii.com:1337","udp://tracker.coppersurfer.tk:6969","udp://tracker.leechers-paradise.org:6969","udp://zer0day.ch:1337"],"urlList":[]}}